<?xml version="1.0" encoding="iso-8859-1"?>
<!-- Generator: Adobe Illustrator 19.0.0, SVG Export Plug-In . SVG Version: 6.00 Build 0)  -->
<svg version="1.1" id="Capa_1" xmlns="http://www.w3.org/2000/svg" xmlns:xlink="http://www.w3.org/1999/xlink" x="0px" y="0px"
	 viewBox="0 0 222.383 222.383" style="enable-background:new 0 0 222.383 222.383;" xml:space="preserve">
<g>
	<path d="M107.589,99.843l3.498,3.446l3.509-3.435c3.64-3.564,35.754-35.124,42.249-45.691c4.221-6.865,6.103-13.756,6.103-22.343
		C162.947,10.93,147.252,0,131.748,0c-8.532,0-15.62,2.934-20.61,8.404C107.319,4.226,100.901,0,90.568,0
		c-18.33,0-31.132,13.085-31.132,31.82c0,8.55,1.893,15.44,6.136,22.343C72.063,64.725,103.972,96.279,107.589,99.843z"/>
	<path d="M114.794,122.54l-3.498-3.446l-3.509,3.435c-3.64,3.564-35.753,35.123-42.249,45.691
		c-4.22,6.865-6.102,13.757-6.102,22.343c0,20.891,15.695,31.82,31.199,31.82c8.53,0,15.618-2.935,20.609-8.405
		c3.818,4.179,10.236,8.405,20.57,8.405c18.33,0,31.132-13.085,31.132-31.82c0-8.548-1.893-15.438-6.136-22.343
		C150.319,157.658,118.411,126.104,114.794,122.54z"/>
	<path d="M213.978,111.138c4.179-3.818,8.405-10.236,8.405-20.57c0-18.329-13.085-31.131-31.819-31.131
		c-8.551,0-15.441,1.893-22.343,6.136c-10.562,6.491-42.117,38.399-45.681,42.017l-3.446,3.498l3.435,3.509
		c3.564,3.64,35.124,35.754,45.691,42.249c6.863,4.22,13.755,6.102,22.344,6.102c20.89,0,31.819-15.694,31.819-31.198
		C222.383,123.217,219.448,116.129,213.978,111.138z"/>
	<path d="M99.843,114.794l3.446-3.498l-3.435-3.509c-3.564-3.64-35.123-35.754-45.69-42.249c-6.863-4.22-13.755-6.102-22.344-6.102
		C10.93,59.437,0,75.131,0,90.635c0,8.531,2.935,15.619,8.406,20.61C4.227,115.063,0,121.481,0,131.815
		c0,18.329,13.085,31.131,31.82,31.131c8.551,0,15.441-1.893,22.343-6.136C64.726,150.319,96.28,118.411,99.843,114.794z"/>
</g>
<g>
</g>
<g>
</g>
<g>
</g>
<g>
</g>
<g>
</g>
<g>
</g>
<g>
</g>
<g>
</g>
<g>
</g>
<g>
</g>
<g>
</g>
<g>
</g>
<g>
</g>
<g>
</g>
<g>
</g>
</svg>
