<?xml version="1.0" encoding="iso-8859-1"?>
<!-- Generator: Adobe Illustrator 18.0.0, SVG Export Plug-In . SVG Version: 6.00 Build 0)  -->
<!DOCTYPE svg PUBLIC "-//W3C//DTD SVG 1.1//EN" "http://www.w3.org/Graphics/SVG/1.1/DTD/svg11.dtd">
<svg version="1.1" id="Capa_1" xmlns="http://www.w3.org/2000/svg" xmlns:xlink="http://www.w3.org/1999/xlink" x="0px" y="0px"
	 viewBox="0 0 432.671 432.671" style="enable-background:new 0 0 432.671 432.671;" xml:space="preserve">
<g>
	<path d="M109.553,432.671c-23.86,0-46.292-9.292-63.163-26.163c-34.828-34.828-34.828-91.498,0-126.326L246.811,79.761
		c23.647-23.648,62.127-23.648,85.774,0c23.648,23.648,23.648,62.127,0,85.775L185.164,312.957c-5.857,5.858-15.355,5.858-21.213,0
		c-5.858-5.858-5.858-15.355,0-21.213l147.421-147.422c11.951-11.951,11.951-31.397,0-43.348c-5.79-5.79-13.487-8.978-21.674-8.978
		s-15.885,3.188-21.674,8.978L67.603,301.395c-23.131,23.131-23.131,60.769,0,83.9c11.206,11.205,26.104,17.376,41.95,17.376
		c15.846,0,30.745-6.171,41.95-17.376L356.628,180.17c16.621-16.621,25.774-38.719,25.774-62.225
		c0-23.506-9.153-45.604-25.774-62.225c-34.312-34.312-90.14-34.311-124.451,0L80.052,207.844c-5.857,5.858-15.355,5.858-21.213,0
		c-5.858-5.858-5.858-15.355,0-21.213L210.964,34.506c46.008-46.008,120.869-46.008,166.877,0
		c22.288,22.287,34.562,51.92,34.562,83.439c0,31.519-12.274,61.151-34.562,83.439L172.716,406.508
		C155.845,423.38,133.413,432.671,109.553,432.671z"/>
</g>
<g>
</g>
<g>
</g>
<g>
</g>
<g>
</g>
<g>
</g>
<g>
</g>
<g>
</g>
<g>
</g>
<g>
</g>
<g>
</g>
<g>
</g>
<g>
</g>
<g>
</g>
<g>
</g>
<g>
</g>
</svg>
