<?xml version="1.0" encoding="iso-8859-1"?>
<!-- Generator: Adobe Illustrator 17.1.0, SVG Export Plug-In . SVG Version: 6.00 Build 0)  -->
<!DOCTYPE svg PUBLIC "-//W3C//DTD SVG 1.1//EN" "http://www.w3.org/Graphics/SVG/1.1/DTD/svg11.dtd">
<svg version="1.1" id="Capa_1" xmlns="http://www.w3.org/2000/svg" xmlns:xlink="http://www.w3.org/1999/xlink" x="0px" y="0px"
	 viewBox="0 0 465 465" style="enable-background:new 0 0 465 465;" xml:space="preserve">
<g>
	<path d="M386.7,304.028c-0.835-3.339-3.835-5.681-7.276-5.681H85.576c-3.441,0-6.441,2.342-7.276,5.681l-20,79.993
		c-0.561,2.241-0.057,4.614,1.364,6.435s3.602,2.885,5.912,2.885h333.848c2.31,0,4.49-1.064,5.911-2.885
		c1.422-1.82,1.925-4.193,1.365-6.435L386.7,304.028z M75.182,378.341l16.25-64.993h282.136l16.249,64.993H75.182z"/>
	<path d="M221.47,212.504c0,4.825-0.403,9.661-1.197,14.374c-0.688,4.084,2.064,7.953,6.149,8.642
		c0.422,0.071,0.841,0.105,1.255,0.105c3.594,0,6.77-2.592,7.387-6.255c0.933-5.534,1.406-11.209,1.406-16.866
		c0-5.656-0.474-11.333-1.406-16.871c-0.688-4.084-4.55-6.835-8.642-6.149c-4.084,0.688-6.838,4.557-6.15,8.642
		C221.067,202.842,221.47,207.68,221.47,212.504z"/>
	<path d="M440.81,71.659H24.19C10.852,71.659,0,82.511,0,95.85V369.15c0,13.339,10.852,24.19,24.19,24.19h11.386
		c4.142,0,7.5-3.357,7.5-7.5s-3.358-7.5-7.5-7.5H24.19c-5.067,0-9.19-4.123-9.19-9.19V95.85c0-5.067,4.123-9.19,9.19-9.19H440.81
		c5.067,0,9.19,4.123,9.19,9.19V369.15c0,5.067-4.123,9.19-9.19,9.19h-11.386c-4.143,0-7.5,3.357-7.5,7.5s3.357,7.5,7.5,7.5h11.386
		c13.339,0,24.19-10.852,24.19-24.19V95.85C465,82.511,454.148,71.659,440.81,71.659z"/>
	<path d="M135.626,169.379c-23.779,0-43.125,19.346-43.125,43.125c0,23.778,19.346,43.124,43.125,43.124h193.748
		c23.779,0,43.125-19.346,43.125-43.124c0-23.779-19.346-43.125-43.125-43.125H135.626z M296.724,184.379
		c-6.519,7.558-10.474,17.385-10.474,28.125c0,10.739,3.956,20.566,10.474,28.124H168.276c6.519-7.558,10.474-17.385,10.474-28.124
		c0-10.74-3.956-20.567-10.474-28.125H296.724z M107.501,212.504c0-15.508,12.617-28.125,28.125-28.125
		c15.508,0,28.125,12.617,28.125,28.125s-12.617,28.124-28.125,28.124C120.118,240.628,107.501,228.012,107.501,212.504z
		 M357.499,212.504c0,15.508-12.617,28.124-28.125,28.124s-28.125-12.616-28.125-28.124s12.617-28.125,28.125-28.125
		S357.499,196.996,357.499,212.504z"/>
	<path d="M436.924,131.431c0-4.143-3.357-7.5-7.5-7.5H35.576c-4.142,0-7.5,3.357-7.5,7.5s3.358,7.5,7.5,7.5h393.848
		C433.566,138.931,436.924,135.573,436.924,131.431z"/>
</g>
<g>
</g>
<g>
</g>
<g>
</g>
<g>
</g>
<g>
</g>
<g>
</g>
<g>
</g>
<g>
</g>
<g>
</g>
<g>
</g>
<g>
</g>
<g>
</g>
<g>
</g>
<g>
</g>
<g>
</g>
</svg>
